<svg t="1654856755114" class="icon" viewBox="0 0 1024 1024" version="1.1" xmlns="http://www.w3.org/2000/svg" p-id="14472" width="16" height="16"><path d="M575.457882 507.512471c59.226353-23.476706 101.285647-81.212235 101.285647-148.690824 0-88.229647-71.785412-160-160.015058-160s-160 71.770353-160 160c0 67.478588 42.044235 125.214118 101.270588 148.690824-131.689412 27.226353-231.002353 144.097882-231.002353 283.738353 0 33.957647 23.823059 45.206588 42.962823 54.241882l1.099295 0.451765c77.176471 27.241412 188.792471 34.499765 242.582588 34.499764 58.654118 0 173.477647-9.517176 249.735529-35.855059 28.581647-10.962824 43.083294-28.912941 43.083294-53.338352 0-139.655529-99.312941-256.527059-231.002353-283.738353z" p-id="14473"></path><path d="M382.780235 494.034824c-37.903059-35.343059-61.741176-85.564235-61.741176-141.477648 0-68.472471 35.644235-128.512 89.283765-162.93647v-0.015059c-0.331294-0.466824-0.813176-0.737882-1.189648-1.129412-0.391529-0.421647-0.632471-0.948706-1.099294-1.325176a160.301176 160.301176 0 0 0-100.141176-35.312941c-88.229647 0-160.015059 71.770353-160.015059 160 0 67.478588 42.059294 125.214118 101.285647 148.690823C117.458824 487.755294 18.160941 604.626824 18.160941 744.267294c0 24.440471 14.501647 42.375529 43.459765 53.488941 42.887529 14.817882 96.105412 23.356235 134.128941 27.994353a322.409412 322.409412 0 0 1-2.409412-38.731294c0-130.439529 77.778824-242.642824 189.44-292.98447zM786.808471 460.544c59.226353-23.476706 101.285647-81.212235 101.285647-148.690824 0-88.229647-71.785412-160-160.015059-160-36.939294 0-73.005176 12.905412-101.51153 36.321883l-4.246588 3.478588a193.400471 193.400471 0 0 1 85.940706 160.903529c0 55.913412-23.838118 106.134588-61.741176 141.477648 111.661176 50.341647 189.44 162.544941 189.44 292.98447 0 13.402353-0.918588 26.578824-2.499765 39.544471l0.798118-0.090353c39.137882-4.547765 95.216941-13.206588 140.483764-28.852706 28.581647-10.962824 43.083294-28.912941 43.083294-53.338353 0-139.655529-99.312941-256.527059-231.017411-283.738353z" p-id="14474"></path></svg>