<?xml version="1.0" encoding="UTF-8"?>
<svg width="22px" height="22px" viewBox="0 0 22 22" version="1.1" xmlns="http://www.w3.org/2000/svg" xmlns:xlink="http://www.w3.org/1999/xlink">
    <title>一键部署备份 3</title>
    <g id="页面-1" stroke="none" stroke-width="1" fill="none" fill-rule="evenodd">
        <g id="一键部署备份-3">
            <path d="M5.1277704,0.625 L16.8722296,0.625 C18.4782688,0.625 19.0694415,0.770130262 19.6589421,1.08539866 C20.2002651,1.37490138 20.6250986,1.79973486 20.9146013,2.34105788 C21.2298697,2.93055852 21.375,3.52173118 21.375,5.1277704 L21.375,5.1277704 L21.375,16.8722296 C21.375,18.4782688 21.2298697,19.0694415 20.9146013,19.6589421 C20.6250986,20.2002651 20.2002651,20.6250986 19.6589421,20.9146013 C19.0694415,21.2298697 18.4782688,21.375 16.8722296,21.375 L16.8722296,21.375 L5.1277704,21.375 C3.52173118,21.375 2.93055852,21.2298697 2.34105788,20.9146013 C1.79973486,20.6250986 1.37490138,20.2002651 1.08539866,19.6589421 C0.770130262,19.0694415 0.625,18.4782688 0.625,16.8722296 L0.625,16.8722296 L0.625,5.1277704 C0.625,3.52173118 0.770130262,2.93055852 1.08539866,2.34105788 C1.37490138,1.79973486 1.79973486,1.37490138 2.34105788,1.08539866 C2.93055852,0.770130262 3.52173118,0.625 5.1277704,0.625 L5.1277704,0.625 Z" id="矩形" stroke="#FFFFFF" stroke-width="1.25"></path>
            <g id="编组-10" transform="translate(3.928571, 3.928571)" fill="#FFFFFF">
                <rect id="矩形" opacity="0" x="0" y="0" width="14.1428571" height="14.1428571"></rect>
                <path d="M5.13150609,11.2061209 C4.29097453,11.2061209 3.62250831,11.0157831 3.12686877,10.6351076 C2.63122924,10.2544321 2.37465393,9.707782 2.35714286,8.99515742 L3.90496955,8.99515742 C3.96892303,9.61641988 4.37472315,9.92705111 5.12313123,9.92705111 C5.40102436,9.92705111 5.63780454,9.87071113 5.83194906,9.75803117 C6.02609358,9.64535122 6.12278516,9.47404723 6.12278516,9.24259651 C6.12278516,9.08347414 6.06187708,8.95176041 5.94006091,8.84440991 C5.81900609,8.73858212 5.69490587,8.66396971 5.571567,8.6205727 C5.44594408,8.57869839 5.20992525,8.51093815 4.86198782,8.41957602 C4.8452381,8.41424657 4.83305648,8.40967846 4.82696567,8.40587171 C4.82087486,8.40358765 4.8125,8.40054225 4.80107973,8.39749684 C4.78965947,8.39445144 4.7782392,8.39292874 4.76605759,8.39292874 C4.49958472,8.32592984 4.28031561,8.26654446 4.10901163,8.21477259 C3.93846899,8.16300072 3.74432447,8.08382021 3.52657807,7.97723106 C3.30883167,7.87064192 3.13676633,7.7526325 3.00962071,7.62548688 C2.88095238,7.4975799 2.77284053,7.32855997 2.68300111,7.11842708 C2.59392303,6.90905554 2.54824197,6.67303671 2.54824197,6.41113195 C2.54824197,5.74114302 2.77588594,5.23865133 3.23041251,4.90365687 C3.68646179,4.5686624 4.28183832,4.40116517 5.01806478,4.40116517 C5.72612126,4.40116517 6.30474806,4.57246916 6.75394518,4.91279308 C7.2031423,5.25387835 7.44220653,5.75332464 7.47189922,6.41113195 L5.96670819,6.41113195 C5.9370155,6.1614088 5.83575581,5.96878699 5.66216777,5.83098245 C5.48781838,5.69393926 5.25636766,5.62541766 4.96629291,5.62541766 C4.69905869,5.62541766 4.48359635,5.68175764 4.31838317,5.7944376 C4.15316999,5.90711755 4.07018272,6.05481966 4.07018272,6.23754391 C4.07018272,6.4446314 4.16839701,6.5953789 4.36558693,6.68902508 C4.56353821,6.78343261 4.93431617,6.89535122 5.48020487,7.02249684 C5.82129014,7.10776816 6.10299003,7.19151678 6.32302049,7.27374269 C6.54305094,7.3559686 6.7676495,7.47397802 6.99757752,7.62548688 C7.22598283,7.77775709 7.39728682,7.97418566 7.51072813,8.21477259 C7.62264673,8.45459817 7.68050941,8.74315022 7.68050941,9.07814468 C7.68050941,9.7420428 7.44068383,10.2620456 6.96255537,10.6396757 C6.48366556,11.0173058 5.87382337,11.2061209 5.13150609,11.2061209" id="Fill-1"></path>
                <polygon id="Fill-19" points="9.24660853 2.39226429 7.68660022 3.05540105 11.0022841 11.2064254 12.5714286 10.5668905"></polygon>
            </g>
        </g>
    </g>
</svg> 