<svg t="1654856473773" class="icon" viewBox="0 0 1024 1024" version="1.1" xmlns="http://www.w3.org/2000/svg" p-id="12385" width="16" height="16"><path d="M416 192v224H192V192h224m48-64H144c-8.8 0-16 7.2-16 16v320c0 8.8 7.2 16 16 16h320c8.8 0 16-7.2 16-16V144c0-8.8-7.2-16-16-16z m-48 480v224H192V608h224m48-64H144c-8.8 0-16 7.2-16 16v320c0 8.8 7.2 16 16 16h320c8.8 0 16-7.2 16-16V560c0-8.8-7.2-16-16-16z m368-352v224H608V192h224m48-64H560c-8.8 0-16 7.2-16 16v320c0 8.8 7.2 16 16 16h320c8.8 0 16-7.2 16-16V144c0-8.8-7.2-16-16-16z m-48 480v224H608V608h224m48-64H560c-8.8 0-16 7.2-16 16v320c0 8.8 7.2 16 16 16h320c8.8 0 16-7.2 16-16V560c0-8.8-7.2-16-16-16z" p-id="12386" fill="#C5C5C5"></path></svg>