<svg t="1681365446634" class="icon" viewBox="0 0 1024 1024" version="1.1" xmlns="http://www.w3.org/2000/svg" p-id="4373"
    width="16" height="16">
    <path
        d="M160 448a32 32 0 0 1-32-32V160a32 32 0 0 1 32-32h256a32 32 0 0 1 32 32v256a32 32 0 0 1-32 32z m32-64h192V192H192z m-32 512a32 32 0 0 1-32-32V608a32 32 0 0 1 32-32h256a32 32 0 0 1 32 32v256a32 32 0 0 1-32 32z m32-64h192V640H192z m658.88-560L720 141.12 589.12 272 720 402.88z m-153.6 198.72l-176-176a32 32 0 0 1 0-45.44l176-176a32 32 0 0 1 45.44 0l176 176a32 32 0 0 1 0 45.44l-176 176a32 32 0 0 1-45.44 0zM608 896a32 32 0 0 1-32-32V608a32 32 0 0 1 32-32h256a32 32 0 0 1 32 32v256a32 32 0 0 1-32 32z m32-64h192V640H640z"
        p-id="4374" fill="#ffffff"></path>
</svg>