<svg t="1654857485119" class="icon" viewBox="0 0 1024 1024" version="1.1" xmlns="http://www.w3.org/2000/svg" p-id="16350" width="16" height="16"><path d="M1024.16832 768s-167.68 256-384 256a353.792 353.792 0 0 1-192-64.576V960a450.752 450.752 0 0 1-448-448 439.424 439.424 0 0 1 384-448v128a300.8 300.8 0 0 0-256 320 309.376 309.376 0 0 0 138.24 269.504c-6.4-8.32-9.6-13.504-9.6-13.504S411.04832 512 640.16832 512s384 256 384 256z m-384-128a364.352 364.352 0 0 0-256 128 320 320 0 0 0 512 0 364.352 364.352 0 0 0-256-128z m0 192a64 64 0 1 1 64-64 64 64 0 0 1-64 64zM448.16832 512V0a512 512 0 0 1 512 512H448.16832z m128-384v256h256c0-63.36-192-256-256-256z" p-id="16351" fill="#C5C5C5"></path></svg>